<svg xmlns="http://www.w3.org/2000/svg" xmlns:xlink="http://www.w3.org/1999/xlink" width="500" zoomAndPan="magnify" viewBox="0 0 375 374.999991" height="500" preserveAspectRatio="xMidYMid meet" version="1.0"><defs><clipPath id="a0f9f15ed7"><path d="M 0.519531 0 L 375 0 L 375 375 L 0.519531 375 Z M 0.519531 0 " clip-rule="nonzero"/></clipPath><clipPath id="759cfc3433"><path d="M 188.019531 0 C 84.464844 0 0.519531 83.945312 0.519531 187.5 C 0.519531 291.054688 84.464844 375 188.019531 375 C 291.570312 375 375.519531 291.054688 375.519531 187.5 C 375.519531 83.945312 291.570312 0 188.019531 0 Z M 188.019531 0 " clip-rule="nonzero"/></clipPath><clipPath id="7478388eb8"><path d="M 63.695312 84 L 312.695312 84 L 312.695312 291 L 63.695312 291 Z M 63.695312 84 " clip-rule="nonzero"/></clipPath></defs><g clip-path="url(#a0f9f15ed7)"><g clip-path="url(#759cfc3433)"><path fill="#000000" d="M 0.519531 0 L 375.519531 0 L 375.519531 375 L 0.519531 375 Z M 0.519531 0 " fill-opacity="1" fill-rule="nonzero"/></g></g><g clip-path="url(#7478388eb8)"><path fill="#191c99" d="M 268.546875 161.984375 L 162.136719 268.394531 L 127.878906 268.394531 L 312.277344 84 L 84.152344 84 L 84.152344 153.96875 L 111.117188 153.96875 L 132.984375 132.101562 L 104.5625 132.101562 L 104.5625 108.054688 L 179.628906 108.054688 L 84.152344 203.527344 L 84.152344 247.984375 L 104.5625 227.582031 L 104.5625 215.917969 L 212.425781 108.054688 L 246.679688 108.054688 L 63.746094 290.988281 L 289.683594 290.988281 L 289.683594 221.75 L 262.714844 221.75 L 239.394531 245.074219 L 268.546875 245.074219 L 268.546875 268.394531 L 193.472656 268.394531 L 289.683594 172.191406 L 289.683594 127.726562 L 268.546875 148.867188 Z M 268.546875 161.984375 " fill-opacity="1" fill-rule="nonzero"/></g></svg>